<?xml version="1.0" standalone="no"?><!DOCTYPE svg PUBLIC "-//W3C//DTD SVG 1.1//EN" "http://www.w3.org/Graphics/SVG/1.1/DTD/svg11.dtd"><svg class="icon" width="200px" height="200.00px" viewBox="0 0 1024 1024" version="1.1" xmlns="http://www.w3.org/2000/svg"><path d="M878.96064 348.03712l-80.91648 0c-5.46816 0-10.83392 1.16736-15.7696 3.4816l-65.18784 30.35136 0-41.08288c0-20.64384-16.71168-37.35552-37.35552-37.35552l-507.37152 0c-20.64384 0-37.33504 16.71168-37.33504 37.35552l0 342.40512c0 20.64384 16.6912 37.35552 37.33504 37.35552l507.37152 0c20.64384 0 37.35552-16.71168 37.35552-37.35552l0-41.08288 65.18784 30.3104c4.9152 2.31424 10.30144 3.52256 15.7696 3.52256l80.91648 0c20.64384 0 37.33504-16.75264 37.33504-37.35552l0-253.19424C916.29568 364.76928 899.60448 348.03712 878.96064 348.03712zM554.12736 528.6912l-176.45568 100.16768c-2.94912 1.67936-6.20544 2.49856-9.48224 2.49856-3.33824 0-6.67648-0.86016-9.66656-2.62144-5.91872-3.42016-9.54368-9.74848-9.54368-16.5888l0-200.33536c0-6.84032 3.62496-13.16864 9.54368-16.5888 5.91872-3.44064 13.18912-3.4816 19.1488-0.12288l176.45568 100.16768c6.02112 3.42016 9.728 9.80992 9.728 16.6912C563.83488 518.90176 560.14848 525.27104 554.12736 528.6912z" /></svg>